<svg id="Capa_1" enable-background="new 0 0 512 512" height="512" viewBox="0 0 512 512" width="512" xmlns="http://www.w3.org/2000/svg"><g><g><path d="m134.31 134.339v32.121c5.625-3.222 8.984-8.919 9.896-14.339.656-3.91.925-13.225-9.896-17.782z"/><path d="m108.997 91.86c-.799 4.239.212 8.177 2.577 10.031.833.653 1.751 1.295 2.735 1.926v-20.912c-3.051 2.34-4.733 5.883-5.312 8.955z"/><path d="m125 0c-68.925 0-125 56.075-125 125s56.075 125 125 125 125-56.075 125-125-56.075-125-125-125zm38.929 155.436c-2.353 13.995-13.003 28.188-29.619 32.403v7.161c0 5.522-4.478 10-10 10s-10-4.478-10-10v-6.202c-8.074-.698-14.767-2.879-24.255-9.086-4.622-3.023-5.917-9.221-2.894-13.843 3.022-4.621 9.221-5.919 13.843-2.894 5.4 3.532 8.787 5.064 13.306 5.7v-42.231c-6.387-2.927-11.161-5.744-15.078-8.817-8.299-6.509-12.088-17.801-9.889-29.472 2.396-12.718 11.249-22.837 23.102-26.407.628-.189 1.249-.362 1.865-.526v-6.222c0-5.522 4.478-10 10-10s10 4.478 10 10v5.127c9.709 1.681 16.571 6.461 19.895 10.277 3.628 4.164 3.192 10.481-.972 14.108-4.142 3.607-10.413 3.199-14.051-.905-.228-.231-1.817-1.761-4.872-2.888v32.312c1.775.659 3.549 1.298 5.29 1.914 17.578 6.213 27.355 22.486 24.329 40.491z"/></g><g><path d="m499.512 222.212-52.157-8.858c-6.554-10.189-14.29-19.581-23.101-28.044 5.066-25.339 18.718-47.878 38.968-64.078l3.148-2.518c4.975-3.979 6.893-10.667 4.784-16.679s-7.784-10.035-14.154-10.035h-40c-35.394 0-67.785 20.011-84.032 50.862-5.385-.573-10.724-.862-15.968-.862h-37.936c-8.494 77.499-74.341 138-154.064 138-43.551 0-82.956-18.061-111.14-47.078-9.064 19.966-13.86 41.792-13.86 64.078 0 47.894 22.29 93.064 60 122.374v77.626c0 8.284 6.716 15 15 15h60c6.456 0 12.188-4.132 14.23-10.257l16.582-49.743h140.377l16.581 49.743c2.042 6.125 7.774 10.257 14.23 10.257h60c8.284 0 15-6.716 15-15v-77.624c20.627-16.021 36.76-36.838 47.141-60.851l43.492-17.623c5.662-2.295 9.367-7.793 9.367-13.902v-90c0-7.315-5.276-13.563-12.488-14.788zm-117.512 34.788c-8.284 0-15-6.716-15-15s6.716-15 15-15 15 6.716 15 15-6.716 15-15 15z"/></g></g></svg>