<?xml version="1.0" encoding="UTF-8" standalone="no"?><!-- Generator: Gravit.io --><svg xmlns="http://www.w3.org/2000/svg" xmlns:xlink="http://www.w3.org/1999/xlink" style="isolation:isolate" viewBox="0 0 956.693 519.803" width="956.693pt" height="519.803pt"><defs><clipPath id="_clipPath_d7OZMTJORzr81EhrmpEWZfahYk5s04qL"><rect width="956.693" height="519.803"/></clipPath></defs><g clip-path="url(#_clipPath_d7OZMTJORzr81EhrmpEWZfahYk5s04qL)"><path d=" M 35.433 90.172 C 35.433 60.572 59.206 36.554 88.562 36.554 L 868.009 36.554 C 897.34 36.554 921.137 60.572 921.137 90.172 L 921.137 429.338 C 921.137 458.938 897.34 482.931 868.009 482.931 L 88.562 482.931 C 59.206 482.931 35.433 458.938 35.433 429.338 L 35.433 90.172 Z " fill="rgb(255,255,255)"/><path d=" M 36.045 84.761 C 36.045 57.536 57.933 35.452 84.914 35.452 L 872.416 35.452 C 899.396 35.452 921.26 57.536 921.26 84.761 L 921.26 86.328 L 36.045 86.328 L 36.045 84.761 Z " fill="rgb(251,177,16)"/><path d=" M 921.26 433.818 L 921.26 435.042 C 921.26 462.267 899.396 484.351 872.416 484.351 L 84.914 484.351 C 57.933 484.351 36.045 462.267 36.045 435.042 L 36.045 433.818 L 921.26 433.818 Z " fill="rgb(251,177,16)"/><path d=" M 648.688 259.375 C 648.688 328.295 704.045 384.166 772.353 384.166 C 840.637 384.166 896.018 328.295 896.018 259.375 C 896.018 190.43 840.637 134.56 772.353 134.56 C 704.045 134.56 648.688 190.43 648.688 259.375 Z  M 59.084 259.375 C 59.084 328.295 114.465 384.166 182.773 384.166 C 251.057 384.166 306.438 328.295 306.438 259.375 C 306.438 190.43 251.057 134.56 182.773 134.56 C 114.465 134.56 59.084 190.43 59.084 259.375 Z  M 921.26 410.192 L 311.506 410.192 C 322.499 402.406 332.733 391.756 343.897 377.384 L 406.011 297.398 L 433.138 331.992 L 463.326 291.473 L 436.933 257.563 L 500.149 176.132 C 520.225 150.303 481.835 119.943 461.759 145.773 L 405.888 217.754 L 349.087 144.818 C 328.987 119.062 290.67 149.495 310.771 175.275 L 374.966 257.588 L 305.507 347.025 C 280.828 378.804 256.198 407.939 207.305 410.192 L 36.045 410.192 L 36.045 109.954 L 642.592 109.954 C 632.162 117.642 622.32 127.949 611.645 141.709 L 549.556 221.671 L 522.404 187.101 L 492.241 227.62 L 518.634 261.505 L 455.393 342.936 C 435.342 368.766 473.731 399.125 493.783 373.296 L 549.678 301.339 L 606.479 374.25 C 626.58 400.031 664.896 369.599 644.795 343.818 L 580.601 261.481 L 650.059 172.068 C 672.731 142.835 695.378 115.855 736.852 109.954 L 921.26 109.954 L 921.26 410.192 Z  M 698.316 259.375 C 698.316 218.097 731.466 184.652 772.353 184.652 C 813.24 184.652 846.366 218.097 846.366 259.375 C 846.366 300.629 813.24 334.073 772.353 334.073 C 731.466 334.073 698.316 300.629 698.316 259.375 Z  M 108.736 259.375 C 108.736 218.097 141.886 184.652 182.773 184.652 C 223.635 184.652 256.786 218.097 256.786 259.375 C 256.786 300.629 223.635 334.073 182.773 334.073 C 141.886 334.073 108.736 300.629 108.736 259.375 Z " fill="rgb(231,0,32)"/></g></svg>