<svg height="512" viewBox="0 0 58 58" width="512" xmlns="http://www.w3.org/2000/svg"><g id="Page-1" fill="none" fill-rule="evenodd"><g id="150---Schedule-Transit" fill-rule="nonzero"><path id="Shape" d="m58 40v8c0 1.6568542-1.3431458 3-3 3h-48c-1.65685425 0-3-1.3431458-3-3v-8z" fill="#3d324c"/><path id="Shape" d="m58 30.68v10.32h-22v-24h11.02c.6189933.0014878 1.2024148.289506 1.58.78l8.99 11.68c.2635216.3524071.4072107.7799697.41 1.22z" fill="#b49aca"/><path id="Shape" d="m38 11v30h-34c-2.209139 0-4-1.790861-4-4v-26c0-3.3137085 2.6862915-6 6-6h26c3.3137085 0 6 2.6862915 6 6z" fill="#894b9d"/><circle id="Oval" cx="15" cy="52" fill="#285680" r="6"/><circle id="Oval" cx="15" cy="52" fill="#b0d3f0" r="2"/><circle id="Oval" cx="46" cy="52" fill="#285680" r="6"/><circle id="Oval" cx="46" cy="52" fill="#b0d3f0" r="2"/><path id="Shape" d="m26 48h-2c-.5522847 0-1-.4477153-1-1s.4477153-1 1-1h2c.5522847 0 1 .4477153 1 1s-.4477153 1-1 1z" fill="#5d4c72"/><path id="Shape" d="m37 48h-7c-.5522847 0-1-.4477153-1-1s.4477153-1 1-1h7c.5522847 0 1 .4477153 1 1s-.4477153 1-1 1z" fill="#5d4c72"/><path id="Shape" d="m58 30.68v4.32h-14c-1.1032019-.0032948-1.9967052-.8967981-2-2v-10c.0032948-1.1032019.8967981-1.9967052 2-2h7l.05-.04 6.54 8.5c.2635216.3524071.4072107.7799697.41 1.22z" fill="#3b97d3"/><path id="Shape" d="m46 27c-.5522847 0-1-.4477153-1-1v-1c0-.5522847.4477153-1 1-1s1 .4477153 1 1v1c0 .5522847-.4477153 1-1 1z" fill="#b0d3f0"/><path id="Shape" d="m46 32c-.5522847 0-1-.4477153-1-1v-1c0-.5522847.4477153-1 1-1s1 .4477153 1 1v1c0 .5522847-.4477153 1-1 1z" fill="#b0d3f0"/><circle id="Oval" cx="15" cy="15" fill="#f29c1f" r="15"/><circle id="Oval" cx="15" cy="15" fill="#67b9cc" r="11"/><g fill="#3d324c"><path id="Shape" d="m12 19c-.4043959-.0000863-.7689341-.2437275-.923678-.6173454-.1547439-.373618-.0692299-.8036603.216678-1.0896546l2.713-2.715v-6.578c0-.55228475.4477153-1 1-1s1 .44771525 1 1v6.992c-.0000566.2651948-.1054506.5195073-.293.707l-3.006 3.008c-.1874927.1875494-.4418052.2929434-.707.293z"/><path id="Shape" d="m15.006 23c-.5522847 0-1-.4477153-1-1v-1c0-.5522847.4477153-1 1-1s1 .4477153 1 1v1c0 .5522847-.4477153 1-1 1z"/><path id="Shape" d="m22 15.992h-1c-.5522847 0-1-.4477153-1-1s.4477153-1 1-1h1c.5522847 0 1 .4477153 1 1s-.4477153 1-1 1z"/><path id="Shape" d="m9 15.992h-1c-.55228475 0-1-.4477153-1-1s.44771525-1 1-1h1c.55228475 0 1 .4477153 1 1s-.44771525 1-1 1z"/></g><path id="Shape" d="m15 27c-3.9633976-.0026583-7.67020316-1.9608603-9.90630585-5.2332252-2.23610269-3.272365-2.71345018-7.4373502-1.27569415-11.1307748.13004467-.3329715.4278491-.5712719.78123325-.6251357.35338414-.05386377.70866054.0848922.93200001.364s.28081142.6561642.15076674.9891357c-1.59457068 4.085343-.34124808 8.7329496 3.09114411 11.4626687 3.43239219 2.7297192 8.24285029 2.9045272 11.86431899.4311395 3.6214688-2.4733878 5.2088204-7.0177666 3.9149799-11.2080721-1.2938405-4.19030539-5.1669349-7.04866246-9.552443-7.0497361-.6005656.00006892-1.1999323.05361369-1.791.16-.351728.06341465-.7105693-.06563244-.941352-.33853048s-.2984453-.64818733-.1775-.98450001c.1209453-.33631269.412124-.58255487.763852-.64596951 4.4696186-.80711551 9.0118969.97839726 11.7355007 4.61307851 2.7236038 3.63468129 3.1617365 8.49558529 1.1319663 12.55870699-2.0297702 4.0631218-6.1795622 6.6320855-10.721467 6.6372145z" fill="#d25627"/><path id="Shape" d="m7 8.45c-.39876546-.0002165-.75928705-.23732538-.9174428-.60338643-.15815575-.36606106-.08371164-.79109577.1894428-1.08161357.65289326-.69188332 1.38531196-1.30413434 2.182-1.824.46281462-.30154747 1.08245253-.17081462 1.384.292.3015475.46281462.1708146 1.08245253-.292 1.384-.66369546.43298493-1.27392319.94285067-1.818 1.519-.18903766.20050163-.45243489.31410978-.728.314z" fill="#d25627"/></g></g></svg>